<?xml version="1.0" encoding="utf-8"?>
<!-- Generator: Adobe Illustrator 22.0.1, SVG Export Plug-In . SVG Version: 6.00 Build 0)  -->
<svg version="1.1" xmlns="http://www.w3.org/2000/svg" xmlns:xlink="http://www.w3.org/1999/xlink" x="0px" y="0px"
	 viewBox="0 0 283.5 283.5" style="enable-background:new 0 0 283.5 283.5;" xml:space="preserve">
<style type="text/css">
	.st0{fill:url(#SVGID_1_);}
	.st1{fill:#D5AF34;}
	.st2{fill:#444545;}
	.st3{fill:#E2DCCC;}
	.st4{fill:#F7F7F7;}
	.st5{fill:#EAEAEA;}
	.st6{fill:none;stroke:#000000;stroke-width:0.5;stroke-miterlimit:10;}
</style>
<g id="Layer_3">
	<linearGradient id="SVGID_1_" gradientUnits="userSpaceOnUse" x1="149.0319" y1="98.372" x2="264.2378" y2="98.372">
		<stop  offset="3.247861e-02" style="stop-color:#BABABA"/>
		<stop  offset="1" style="stop-color:#FFFFFF"/>
	</linearGradient>
	<path class="st0" d="M257.8,92.5c-0.1-0.1-0.3-0.2-0.4-0.3c1.6-4.1,4.6-7.4,4.2-12.3c0-0.1,0-0.1,0-0.2c0.1-1.2,0.2-2.3,0.2-3.4
		c0.4-1,0.4-2.1,0-3.4c-0.1-0.3-0.2-0.6-0.2-1c-0.1-1-0.3-2-0.5-3c0,0,0-0.1,0-0.1c0.1-0.8,0.1-1.7-0.4-2.7c0-0.1,0-0.1-0.1-0.2
		c-0.1-0.5-0.3-0.9-0.5-1.3c-0.1-0.3-0.2-0.5-0.3-0.8c-0.1-0.3-0.2-0.6-0.3-0.9c-0.2-0.6-0.4-1.1-0.7-1.5c-0.4-1.1-0.9-2.1-1.5-3
		c-0.2-0.3-0.4-0.6-0.7-0.9c-0.8-1.4-1.5-2.9-2.3-4.3c-0.4-0.8-1-1.4-1.6-1.9c-0.6-0.8-1.3-1.6-2-2.5c-0.8-1-1.5-2.2-2.4-3.2
		c-0.7-0.7-2.1-1.4-2.5-2.3c-0.7-1.2-1.7-2-2.8-2.4c-0.3-0.3-0.7-0.5-1.1-0.6c-0.6-4.1-2.4-8.2-4.3-11.8c-0.1-1.6-1.3-3.4-2.3-4.8
		c0-0.1,0-0.1-0.1-0.2c-0.1-0.2-0.2-0.5-0.3-0.7c0-0.3-0.1-0.7-0.3-1l-0.4-0.7c-0.1-0.2-0.1-0.3-0.3-0.5c-0.1-0.1-0.2-0.3-0.3-0.4
		c0,0,0,0,0,0c-0.1-0.1-0.1-0.1-0.2-0.2c0,0-0.1-0.1-0.1-0.1c-0.1-0.3-0.3-0.7-0.4-1c-0.1-0.3-0.3-0.6-0.5-0.8
		c0.1-0.5,0-1.1-0.4-1.5c-0.8-1-1.5-2-2.2-3.1c-0.2-0.4-0.5-0.6-0.9-0.7c0-0.1,0-0.1-0.1-0.1c0-0.3-0.1-0.6-0.2-0.8
		c-0.2-0.2-0.3-0.5-0.4-0.8c0-0.4-0.3-0.8-0.7-0.9c0,0-0.1-0.1-0.2-0.1c-0.4-0.1-0.4-0.5-0.6-0.8c-0.1-0.3-0.3-0.5-0.5-0.7
		c-0.5-0.4-1.2,0.3-0.7,0.7c0.3,0.3,0.3,0.7,0.5,1c0.1,0.1,0.2,0.2,0.3,0.3c-0.1,0.1-0.2,0.3-0.1,0.5c0.1,0.7,0.3,1.3,0.6,1.8
		c-0.1,0.4-0.1,0.8,0.2,1.1c-0.1,0.3-0.1,0.7,0.2,1.1c-0.1,0.3-0.1,0.5,0,0.8c0.2,1.2,0.5,2.4,0.9,3.6c0,0,0,0.1,0.1,0.1
		c0,0.2,0,0.3,0,0.5c0.7,4.8,1.4,9.7,2.1,14.5c-0.1,0.3-0.2,0.7-0.1,1.1c0.5,3.1-0.3,6.1,0.1,9.2c-0.2,0.9-0.3,1.8-0.5,2.6
		c-0.2,1.2-0.4,2.4-0.5,3.6c-0.1,0.7,0.1,1.7-0.3,2.3c-0.3,0.5-0.4,1-0.3,1.4c-0.2,0.4-0.4,0.8-0.6,1.3c-2.4,7.2-5.7,15.3-11.8,20.3
		c-0.6,0.5-1.1,1.1-1.4,1.6c-1.2,1.2-2.4,2.4-3.7,3.6c-0.1,0.1-0.1,0.1-0.2,0.2c-0.8,0.6-1.6,1.3-2.3,2c-3.5,2.3-7.7,4.8-10.2,8
		c-5.2,3.5-10.8,7.3-15,12c-0.1,0.1-0.1,0.1-0.1,0.2c0,0,0,0,0,0c-1,0.5-1.8,1.3-2.2,2.1c-0.2,0.1-0.4,0.3-0.5,0.4
		c-2.1,1.8-3.9,3.9-5.6,6c-1.7,1.2-3,3.2-4.4,4.9c-0.4,0.5-0.7,1-1,1.6c-0.1,0.2-0.3,0.4-0.4,0.6c-0.2,0.3-0.3,0.5-0.5,0.8
		c-3.1,2.8-4.6,5.8-5.6,8.7c-3.3,3.2-5.7,9.9-6.6,14.3c-0.2,0.3-0.4,0.7-0.5,1.2c-1.4,4.2-2.8,8.3-3.5,12.7
		c-0.4,0.7-0.7,1.5-0.8,2.5c-0.2,2.5-1.5,4.8-1.8,7.4c-0.4,3.4-0.8,6.8-1.2,10.2c-0.1,0.9,0,1.8,0.3,2.4c0,0.3,0,0.6,0,0.9
		c-0.4,1.7,0.2,3.6,1.3,5c0,0.1,0,0.2,0,0.3c0.2,1.5,1.8,2.4,3.3,2.4c1.3,0,2.7-0.4,3.4-1.6c0.8-0.5,1.6-1.2,2.2-2
		c3.3-4.4,7.4-11.9,6.1-17.9c0.1-0.4,0.1-0.7,0.1-1.1c0.5,0.5,1.2,0.9,1.7,1.3c0.9,0.6,1.8,1.1,2.7,1.6c0.1,0.1,0.2,0.1,0.4,0.2
		c0.8,0.9,1.8,1.6,3.1,2c0.7,0.2,1.2,0.3,1.7,0.5c0.6,0.3,1.1,0.6,1.8,0.8c0.4,0.1,0.9,0.2,1.3,0.2c0.4,0.2,0.8,0.3,1.2,0.4
		c3.7,1.3,10.4,3,14.6,1.9c0.8,0.1,1.7,0.2,2.5,0.2c0.2,0,0.3,0,0.5,0c0.1,0,0.3,0,0.4,0c1.3-0.1,2.6-0.2,3.9-0.4c0.2,0,0.3,0,0.4,0
		c5.5-0.2,10.8-1.4,15.9-3.3c0.1,0,0.2-0.1,0.3-0.1l1.3,0c1.1,0,2.4-0.4,3.3-1.1c1-0.2,2-0.6,2.8-1.5c0.4-0.2,0.8-0.4,1.2-0.6
		c0.7-0.3,1.5-0.7,2.1-1.1c0.1,0,0.1-0.1,0.2-0.1c0.2-0.1,0.5-0.2,0.7-0.3c0.4-0.2,0.8-0.5,1.2-0.8c0.6-0.1,1.2-0.3,1.8-0.7
		c0.4-0.2,0.8-0.5,1.2-0.8c0.1-0.1,0.2-0.1,0.3-0.2c0.8-0.4,1.5-1,2.1-1.6c1-0.6,2-1.4,2.9-2.2c5-3.6,8.7-8.5,10.8-14.3
		c0.3-0.5,0.5-1,0.7-1.6c1.3-4.6,0.4-9.8-1.7-14.1c4.8-3.4,8.8-7.5,12.1-12.5c0.6-0.9,0.8-1.9,0.8-3c1.1-0.9,2-2.2,2.1-4.1
		C264.6,103.6,263.1,97.3,257.8,92.5z"/>
</g>
<g id="Layer_4">
	<path class="st1" d="M139.8,224.2c-0.3,0-0.6,0-0.9,0.1c-0.1-0.4-0.5-0.7-1-0.6c-0.2-0.2-0.5-0.4-1-0.3c0,0-0.1,0-0.1,0
		c-1.6-0.2-3.2-1-4.7-1.5c-1.4-0.5-2.7-0.9-4.1-1.3c-0.1,0-0.2,0-0.3,0c-0.4-0.2-0.8-0.4-1.3-0.5c0,0-0.1,0-0.1,0
		c-0.2-0.1-0.5-0.2-0.7-0.3c-5.5-1.7-10.9-3.6-16.3-5.4c-0.4-0.1-0.8-0.2-1.1-0.3c-0.2-0.1-0.4-0.2-0.6-0.2c-8.9-3-17.9-6-26.8-8.9
		c0.2-0.5,0.4-1.1,0.4-1.7c0.2-1,0.5-1.9,0.6-3c0-0.1,0-0.2,0-0.3c0-0.1,0-0.1,0.1-0.2c0.1-0.6,0.3-1.2,0.5-1.8
		c0.1-0.4,0.2-0.7,0.2-1.1c0.1-0.1,0.1-0.2,0.1-0.3c0.3-1.2,0.5-2.3,0.8-3.5c0.1-0.5,0.2-1,0.3-1.4c0-0.2,0-0.4,0-0.7
		c0.8-3.8,1.6-7.6,2.7-11.3c0.1-0.2,0-0.4,0-0.6c0.2-0.4,0.3-0.9,0.3-1.3c0,0,0-0.1,0-0.1c0.4-0.8,0.7-1.5,0.8-2.4
		c0-0.1,0-0.3,0-0.4c0.2-1,0.5-1.9,0.9-2.8c0.2-0.6-0.7-0.9-1-0.3c0,0,0,0,0,0c-0.4,0.3-0.6,0.7-0.7,1.2c-0.2,0.7-0.5,1.2-1,1.7
		c-0.1,0.1-0.1,0.3-0.1,0.4c0,0,0,0,0,0c0,0.3-0.1,0.5-0.2,0.8c-0.2,0.1-0.3,0.2-0.4,0.4c-1.1,2.2-2.6,4.1-3.9,6.2
		c-0.2,0.1-0.4,0.3-0.5,0.6c-0.1,0.1-0.1,0.2-0.2,0.4c-0.2,0.1-0.4,0.3-0.5,0.5c-0.1,0.2-0.2,0.4-0.3,0.7c-0.1,0.1-0.3,0.2-0.4,0.3
		c-1.1,1.6-2.3,3.2-3.3,4.8c-0.1,0.2-0.3,0.5-0.4,0.7c-0.5,0.1-0.8,0.5-0.8,0.9c-0.2,0.2-0.3,0.4-0.3,0.7c-0.4,0.4-0.9,0.8-1.3,1.2
		c-0.2,0.3-0.3,0.6-0.2,0.8c-2.2,2.5-4.4,5-6.2,7.9c-0.3,0.3-0.6,0.6-0.9,0.9c-0.3,0.2-0.7,0.5-1,0.8c-3.1,3.4-6,6.9-9.3,10.2
		c-0.5,0.5-0.8,0.9-1.1,1.4c-0.6,0.6-1.2,1.2-1.9,1.8c-0.2,0.2-0.3,0.3-0.4,0.5c-0.3,0.3-0.6,0.5-0.8,0.8c-0.2,0-0.4,0-0.6,0.1
		c-0.9,0.5-1.6,1.2-2,2.1c-0.2,0.4-0.1,0.8,0.1,1.1c0,0.2,0.1,0.4,0.3,0.5c0.8,0.9,1.3,2.1,2,3.1c0.9,1.1,1.8,2.2,2.5,3.4
		c0.4,0.8,1.4,0.5,1.7-0.1c0,0,0.1,0,0.1-0.1c0.6-0.5,1.2-0.9,1.9-1.4c0.3-0.2,0.4-0.4,0.4-0.7c0.2-0.1,0.3-0.1,0.5-0.2
		c0.7-0.4,1.4-0.7,2-1.1c1.1-0.4,2.2-0.7,3.3-1c1.3-0.3,2.8-0.8,3.6-0.7c0.4,0,0.8,0,1.1-0.1c2.1,0.1,4.7-0.1,6.9,0.1
		c0.7,0.4,1.5,0.7,2.5,0.7c0.3,0,0.7,0,1,0c0,0,0,0,0,0c0.1,0,0.1,0,0.2,0.1c0.5,0.1,1,0.2,1.4,0.2c0.5,0.3,1.1,0.4,1.7,0.5
		c0.6,0.3,1.2,0.4,2,0.5c0.1,0,0.2,0.1,0.4,0.1c0.3,0.2,0.7,0.3,1.1,0.5c6.7,1.9,12.7,5.4,19.2,7.8c0.6,0.6,1.4,1.1,2.3,1.3
		c0.1,0.1,0.2,0.2,0.3,0.2c0.1,0,0.2,0,0.3,0.1c0.1,0.1,0.3,0.2,0.4,0.1c0.1,0,0.1,0,0.2,0c0.1,0,0.1,0,0.2,0c0.3,0,0.4-0.2,0.5-0.4
		c0.7-0.1,1.4-0.2,2.1-0.5c0.2-0.1,1-0.4,1.2-0.5c0.1,0,0.9-0.4,0.9-0.3c1.5-0.5,3-1.1,4.4-1.6c1,0.1,2-0.1,2.9-0.7
		c0.1-0.1,0.2-0.1,0.2-0.2c1.3,0.1,2.5-0.3,3.5-1.1c0.2-0.1,0.4-0.1,0.6-0.2c0.5-0.1,1-0.4,1.4-0.7c0.5-0.1,1-0.3,1.5-0.5
		c0.3,0.2,0.6,0.2,1,0.1c3.2-1.5,6.5-2.5,9.8-3.6c0.2-0.1,0.4-0.2,0.5-0.3c0.3,0,0.7-0.1,1.1-0.1
		C140.5,225.2,140.5,224.2,139.8,224.2z"/>
	<path class="st1" d="M216.8,196.7c-0.8-1.3-1.4-2.8-2.3-4.1c-1-1.5-2.1-2.9-3.2-4.3c-0.5-0.6-1.1-0.6-1.6-0.4c0,0,0,0,0,0
		c-0.7,0.2-1.4,0.5-2.1,0.7c-0.2,0.1-0.4,0.2-0.6,0.4c-0.1,0-0.1,0-0.2,0c-2.2,0.5-4.3,1.3-6.3,2.3c-0.2,0.1-0.4,0.2-0.6,0.4
		c-0.5,0.2-0.9,0.3-1.4,0.5c-1,0.3-2,0.4-3,0.7c-0.7,0.2-1.3,0.5-1.9,0.9c-0.1,0.1-0.2,0.1-0.3,0.1c-0.9,0.2-1.7,0.3-2.6,0.6
		c-0.3,0.1-0.7,0.3-1,0.4c0,0,0,0,0,0c-1.4,0-2.5,0.6-3.3,1.4c-0.2,0-0.5,0-0.7,0c-0.7,0.3-1.4,0.5-2,0.8c0,0-0.1,0-0.1,0
		c-1.8,0-1.9,2.5-0.4,2.9c0,0.2,0.1,0.4,0.2,0.6c-0.2,0.4-0.2,0.8,0.1,1.3c0.6,0.9,0.6,1.9,0.8,2.8c0.3,0.9,0.7,1.6,1.1,2.5
		c0.3,0.8,0.8,1.6,1.7,1.8c1.1,0.2,1.7-0.6,2.6-0.9c0.3-0.1,0.4-0.2,0.6-0.4c0.4,0,0.9-0.1,1.3-0.3c6.5-2,12.9-4.3,19.2-6.5
		c0.1-0.1,0.3-0.1,0.4-0.2c0,0,0,0,0,0c1.5-0.3,3.2-0.5,4.6-1.4c0,0,0,0,0,0c0.1,0,0.1,0,0.2,0C217.9,199.6,218.1,197.3,216.8,196.7
		z"/>
</g>
<g id="Layer_5">
	<path class="st2" d="M210,186.9c0-0.1-0.1-0.3-0.2-0.4c-0.3-0.2-0.5-0.4-0.6-0.7c-0.1-0.2-0.2-0.2-0.3-0.3
		c-0.3-0.8-0.9-1.3-1.4-1.6c-0.7-1-1.6-1.9-2.3-2.8c-1-1.2-1.9-2.4-2.8-3.6c-0.3-0.4-0.6-0.7-1-0.9c-0.2-1.1-1-2-2.4-2
		c-0.3,0-0.6,0-0.8,0.1c0,0,0,0,0,0c-5.7,0.1-11.3-0.3-17-1.4c-4.3-1.2-8.2-2.8-12.1-5c-0.1-0.1-0.2-0.1-0.3-0.1
		c0-0.2-0.1-0.3-0.3-0.4c-0.7-0.2-1.3-0.7-1.8-1.3c-0.3-0.5-1.1-0.1-0.9,0.4c0,0.1,0,0.1,0,0.2c0,0.7,0,1.4,0,2.2c0,0,0,0.1,0,0.1
		c-0.3,0.6-0.5,1.3-0.3,1.9c0,0.1-0.1,0.2-0.1,0.3c-0.2,0.6-0.3,1.1-0.5,1.7c-0.1,0.3-0.2,0.6-0.3,0.9c-0.8,2.3-1.6,4.6-2.6,6.9
		c-0.4,0.3-0.7,0.7-0.9,1.3c0,0.1-0.1,0.2-0.1,0.3c-0.2,0.2-0.3,0.3-0.5,0.5c-1.6,2.3-6.2,7.6-9,3.7c-0.3-0.4-0.6-0.6-1-0.8
		c0-0.2-0.1-0.3-0.2-0.5c-2.4-5.5-0.9-11.8,0-17.5c0-0.3,0-0.6,0-0.8c0.3-0.4,0.5-0.8,0.6-1.4c0.3-3,1-6,1.7-8.9
		c0.1-0.2,0.1-0.5,0.1-0.7c0.2,0,0.4-0.1,0.5-0.3c0.4-1.4,0.8-2.9,1-4.4c0-0.2,0-0.3-0.1-0.4l0.4-0.3c0.5-0.4,0-1.2-0.5-0.9
		c-0.5,0.3-1,0.7-1.5,1c-0.2,0.1-0.4,0.2-0.6,0.5c-0.1,0.1-0.1,0.2-0.1,0.3c-0.4-0.1-0.7,0.1-1.1,0.2c-0.3,0-0.5,0.3-0.5,0.6
		c-0.2,0-0.5,0-0.7,0.1c-0.2,0.1-0.5,0.1-0.7,0.3c-5,3-11.6,5.4-17.3,7c-4.6,1.3-9.3,1.9-14.1,1.9c-2.9-0.1-5.8-0.4-8.6-1.3
		c-1.6-0.8-3.4-1.2-5.1-1.7c-1.8-0.5-3.4-1.6-5.1-1.9c-0.3-0.1-0.6-0.2-0.9-0.2c-0.2-0.2-0.5-0.3-0.7-0.5c0,0,0,0,0,0c0,0,0,0,0,0
		c-0.1-0.1-0.2-0.1-0.2-0.2c-0.4-0.3-0.8,0.2-0.7,0.5c0,0-0.1,0.1-0.1,0.1c-0.1,0.2-0.2,0.3-0.3,0.4c-0.2,0.2-0.2,0.4-0.1,0.5
		c-0.2,0.2-0.3,0.5-0.4,0.8c0,0,0,0.1,0,0.1c0,0,0,0.1-0.1,0.1c-0.5,0.9-1,1.9-1.5,2.9c-0.5,0.3-0.8,0.8-1,1.4
		c0.2-0.4-0.1,0.1-0.1,0.2c-0.1,0.2-0.2,0.4-0.3,0.5c-0.2,0.4-0.4,0.7-0.6,1.1c-0.3,0.6-0.6,1.2-0.7,1.8c-0.4,0.6-0.9,1.2-1.4,1.8
		c-0.5,0.5-0.6,1.1-0.6,1.7c0,0,0,0,0,0c-0.3,1.2-0.5,2.4-0.8,3.6c-0.2,0.2-0.3,0.5-0.4,0.9c-0.1,0.8-0.2,1.5-0.4,2.3c0,0,0,0,0,0
		c-0.3,0.4-0.4,0.9-0.3,1.4c-0.9,3.8-2,7.7-2.5,11.6c-0.3,1-0.5,2-0.9,2.9c-0.1,0.3-0.1,0.7-0.1,1c-0.1,0.1-0.2,0.3-0.3,0.4
		c-0.5,0.9-0.6,1.8-0.5,2.8c-0.2,0.8-0.4,1.5-0.5,2.2c-0.2,0.7-0.1,1.4-0.4,2.1c-0.3,0.9-0.6,1.4-0.4,2.3c-0.1,0-0.1,0.1-0.2,0.2
		c-0.3,0.5-0.3,1.1,0.2,1.5c0.3,0.3,0.8,0.3,1.1,0.1c0.2,0.1,0.3,0.2,0.5,0.2c0.2,0.2,0.5,0.3,0.8,0.4c4.8,1.6,9.7,3.2,14.5,4.6
		c0.3,0.3,0.6,0.5,1,0.5c1.8,0.3,3.5,1.3,5.3,1.8c1.4,0.4,2.5,1,4,1c5.6,2.5,11.6,4.4,17.4,6c0.4,0.1,0.7,0.1,1,0.1
		c0.4,0.3,0.9,0.5,1.5,0.5c0,0,0,0,0,0c0.5,0.3,1.1,0.5,1.7,0.6c1,0.3,2.1,0.6,3.1,0.9c1.3,1,2.3,1.1,3.9,1.3
		c0.5,0.1,0.8,0.4,1.3,0.5c0.3,0.1,0.7,0.2,1,0.2c0,0,0.1,0,0.1,0c0.8,0.5,1.8,0.5,2.6,0.1c0.3,0,0.6,0,1-0.2
		c3.5-1.3,6.9-2.5,10.5-3.5c0.4-0.1,0.8-0.3,1-0.6c1.2-0.3,2.3-0.6,3.5-1c0.3-0.1,0.6-0.3,0.8-0.4c8.4-2.4,16.7-5.1,24.9-8.3
		c0.1,0,0.1-0.1,0.2-0.1c0.1,0.1,0.3,0.1,0.5,0l1.1-0.5c0.2,0,0.4-0.1,0.5-0.2c0.1,0,0.1-0.1,0.2-0.1c0.5-0.3,0.2-1-0.4-0.9
		c0-0.1-0.1-0.2-0.1-0.3c0-0.1-0.1-0.1-0.1-0.1c0.1-0.4,0.1-0.8-0.1-1.2c-1.1-2.9-2.4-5.8-3.9-8.5c0-0.1-0.1-0.1-0.1-0.2
		c0.1-0.2,0.2-0.3,0.3-0.5c0.1,0,0.1,0,0.2,0c1-0.3,2-0.5,3-0.8c0.6-0.2,1.2-0.6,1.8-0.9c0.1,0,0.2,0,0.3,0c0.7-0.1,1.4-0.4,2.1-0.8
		c0.3,0,0.6,0,0.9-0.1c0.8-0.3,1.5-0.6,2.2-1.1c4.7-1.5,9.3-3.2,14-4.8c0.2-0.1,0.4-0.2,0.5-0.2c0,0,0,0,0,0
		c0.6-0.1,1.1-0.4,1.6-0.7c0.3-0.1,0.7-0.1,1-0.1C210.4,187.8,210.5,187,210,186.9z"/>
	<path class="st2" d="M106.8,235.3c-0.1,0-0.2,0-0.3,0c0,0,0,0,0,0c-1.6-0.9-3.3-1.7-4.9-2.6c-0.2-0.1-0.4-0.1-0.5,0
		c-0.2-0.1-0.3-0.3-0.5-0.4c-0.6-0.3-1.3-0.6-2-0.8c0,0-0.1,0-0.1,0c-0.1,0-0.2-0.1-0.3-0.1c-0.1-0.1-0.2-0.1-0.3-0.1c0,0,0,0,0,0
		c0,0,0,0,0,0c-0.4-0.4-1-0.6-1.6-0.7c-3.1-1.4-6.2-2.7-9.3-3.8c-0.4-0.1-0.8-0.2-1.1-0.1c-1.8-0.7-3.7-1.3-5.6-1.5
		c-4.3-1.2-8.6-1.5-13.1-1.1c-0.3-0.1-0.7,0-1,0.1c-0.3,0.1-0.6,0.2-0.9,0.3c-0.1,0-0.2,0,0,0c0,0,0,0,0,0c-0.6-0.1-1.1,0-1.6,0.3
		c0,0,0,0,0,0c-0.3,0-0.5,0.1-0.7,0.2c-1.5,0.4-2.8,0.8-4.2,1.7c-0.6,0.4-1.4,0.5-2,0.9c-0.5,0.3-0.8,0.7-1.1,1.1
		c-0.2,0.2-0.7,0.7-0.2,0.4c-0.3,0.2-0.5,0.4-0.7,0.6l-1.6-1.7c-0.2-0.3-0.4-0.6-0.6-0.9c-0.2-0.2-0.3-0.5-0.6-0.6
		c0.1-0.1,0.2-0.3,0-0.5c-0.9-1.2-1.9-2.4-3-3.5c0-0.1-0.1-0.3-0.2-0.4c0,0,0-0.1,0-0.1c0-0.6-0.8-0.6-1-0.1
		c-0.2,0.1-0.3,0.4-0.1,0.6c0,0-0.1,0.1-0.1,0.1c-0.1,0-0.3,0-0.4,0.1c-0.5,0.3-0.9,0.7-1.3,1.1c0,0,0,0,0,0c-2.1,1-3.9,3.3-5.5,4.7
		c-3.1,2.6-6.3,5.1-9.5,7.6c-0.2,0.1-0.3,0.3-0.4,0.4c-0.1,0.1-0.2,0.1-0.3,0.2c-3.9,3-8.3,5.8-11.1,9.9c0,0-0.1,0.1-0.1,0.1
		c-2,1.7-3.2,4.6-2.8,7.2c0.1,0.3,0.2,0.6,0.4,0.9c0.4,3.2,2.3,6.3,4.8,8.5c0.1,0.1,0.3,0.2,0.4,0.3c0.1,0.2,0.2,0.5,0.3,0.7
		c0,0.3,0.2,0.5,0.5,0.5c0,0,0,0,0,0c0,0,0.1,0,0.1,0c0.1,0,0.2,0,0.3-0.1c0.1,0.1,0.3,0.1,0.5,0c0.9-0.4,1.9-0.8,2.9-1.2
		c4.6-1.1,9-2.7,13.4-4.6c0,0,0,0,0,0c0.4,0,0.8-0.1,1.2-0.3c0.2,0,0.4-0.1,0.6-0.2c0.5-0.2,1-0.4,1.5-0.6c0.5-0.1,1-0.3,1.4-0.5
		c0.7-0.1,1.4-0.3,2.1-0.5c1-0.2,2-0.5,2.9-0.9c0.6-0.2,1.6-0.9,2.1-1c0.6-0.1,1-0.3,1.4-0.6c0.3-0.1,0.5-0.2,0.8-0.3
		c0.2,0,0.4,0,0.6-0.1c4.6-1.3,9.1-2.8,13.6-4.4c2-0.7,4.1-1.2,5.8-2.2c2.1-0.5,4.1-1,6-1.9c0,0,0,0,0.1,0c2.7-0.8,5.4-1.5,8-2.4
		c0.9-0.3,1.6-0.6,2.1-1.1c2-0.5,4-1.2,6-2c0.8-0.2,1.6-0.4,2.4-0.6c0.4-0.1,0.7-0.3,1-0.5c0.1,0,0.2,0,0.3,0c0.4-0.1,0.8-0.2,1-0.4
		c0.3-0.1,0.6-0.1,0.8-0.2c0.4,0,0.8-0.1,1.1-0.3c0.2-0.1,0.5-0.1,0.7-0.2c1.1-0.4,2.3-1.2,3.5-1.1c0.2,0,0.3,0,0.4-0.1
		C107.4,236.3,107.3,235.4,106.8,235.3z"/>
</g>
<g id="Layer_6">
	<path class="st3" d="M123.7,138.1c-0.4-0.2-0.8-0.2-1.3-0.1c-0.4-0.4-0.9-0.7-1.7-0.8c-0.2-0.1-0.4-0.2-0.6-0.3
		c-1.4-0.5-2.8-1-4.2-1.4c-0.1-0.1-0.2-0.2-0.4-0.2c-1.3-0.7-2.7-0.9-4-1.5c-0.9-0.4-1.9-0.8-2.8-1.2c-0.2-0.2-0.5-0.3-0.8-0.4
		c-0.1,0-0.3-0.1-0.4-0.1c-0.1,0-0.2-0.1-0.3-0.1c-0.2-0.1-0.3-0.1-0.5-0.1c-1-0.3-2-0.6-3-1c-0.4-0.5-0.9-0.8-1.5-0.8
		c-0.1-0.2-0.2-0.3-0.5-0.3h-0.3c-0.3,0-0.5,0.2-0.5,0.5c-0.9,0.3-1.6,1-1.7,2c-3.3,2.5-5.5,7.7-7.3,11.1c-1.4,2.6-3.4,5.6-4.5,8.6
		c-2.2,4.5-4.5,9-6.8,13.5c-0.2,0.3-0.2,0.6-0.3,0.9c-0.1,0.1-0.1,0.3-0.2,0.5c0,0,0,0,0,0c-0.2,0.2-0.5,0.5-0.6,0.7
		c-0.5,0.6-0.7,1.3-0.8,2.1c-0.2,1.4-0.8,2.5-1.4,3.8c-0.1,0.1-0.1,0.3-0.2,0.4c-2.2,3.1-3.2,7.4-4.4,10.7c-0.1,0.2-0.1,0.5-0.1,0.7
		c-0.2,0.3-0.4,0.6-0.6,0.9c-0.5,0.7-0.5,1.3-0.3,1.9c0,0,0,0.1,0,0.1c0,0.2,0,0.3-0.1,0.4c-0.6,0.9-0.9,1.8-1.2,2.8
		c-0.6,1.7-1.2,3.3-1.7,5c-0.1,0.2,0,0.4,0.2,0.5c-0.3,0.5-0.5,1-0.8,1.6c-0.3,0.6,0.6,1.1,0.9,0.5c0.3-0.5,0.5-0.9,0.7-1.4
		c0.2,0,0.3-0.2,0.4-0.4c0.1,0,0.2-0.1,0.3-0.2c2-2.6,3.9-5.2,5.9-7.7c0.1-0.1,0.1-0.3,0.1-0.4c0.1-0.1,0.1-0.1,0.2-0.2
		c3.6-5.2,7.6-10.4,10.3-16.2c0.4-0.5,0.7-1,1.1-1.5c1.3-1.9,2.4-4.2,3.5-6.3c0.2-0.3,0.4-0.7,0.5-1c1.6-2.6,3.4-5.2,4.6-8
		c4.1,1.8,8.2,3.5,12.5,4.5c0,0.1,0.1,0.1,0.2,0.2c0.7,0.5,1.6,0.4,2.2-0.2c0.2-0.2,0.2-0.4,0.1-0.6c0.3-0.3,0.6-0.8,0.7-1.3
		c0.2-0.2,0.4-0.4,0.6-0.6c1.8-2.5,3.1-5.5,4.8-8.2c1.7-2.6,3.2-5.2,4.7-7.9c0-0.1,0-0.1,0.1-0.2c0.4-0.4,0.6-1,0.6-1.5
		c0.2,0.1,0.5,0,0.6-0.3c0.1-0.2,0.1-0.5,0.3-0.7C124.1,138.7,124,138.3,123.7,138.1z"/>
</g>
<g id="Layer_7">
	<path class="st4" d="M100.4,252.2c-12.2,2.4-24.2,5.9-35.8,10.4c-0.6,0.2-0.3,1.2,0.3,1c11.6-4.6,23.6-8,35.8-10.4
		C101.3,253,101,252.1,100.4,252.2z"/>
	<path class="st5" d="M219.3,206.3c0.1-0.9,0-1.9-0.3-2.8c0-0.1,0-0.2,0-0.2c-0.2-0.7-0.4-1.3-0.6-1.9c0,0,0,0,0-0.1
		c-0.1-0.6-0.2-1.2-0.4-1.8c-0.1-0.4-0.6-0.4-0.8-0.2c-0.3,0.1-0.6,0.2-0.9,0.4c-0.1,0.1-0.2,0.1-0.3,0.1c-0.1,0-0.1-0.1-0.1-0.1
		c-0.3-0.1-0.5,0-0.6,0.3c-0.2,0-0.4,0.1-0.6,0.1c-0.2,0-0.4,0.2-0.4,0.4c-0.4,0-0.7,0.1-1.1,0.1c-0.8,0-1.7,0.2-2.6,0.8
		c-1.7,1-3.9,1.4-5.8,2.1c0,0,0,0-0.1,0c-1.4,0.1-2.6,0.7-3.8,1.2c-0.2,0.1-0.4,0.2-0.6,0.2c0.1,0,0.2,0,0.3,0c0,0,0,0-0.1,0
		c-0.5,0.1-1,0.3-1.5,0.5c-5.4,1.6-10.8,3.5-16,5.7c-1.9,0.1-3.4,0.7-5.1,1.5c0,0-0.2,0.1-0.3,0.1c-0.2,0.1-0.6,0.2-0.7,0.2
		c-0.5,0.2-1,0.3-1.5,0.5c-0.3,0-0.7,0.1-1,0.2c-7.6,2.6-15.2,5.2-22.8,7.8c-2.2,0.7-4.4,1.5-6.6,2.3c-0.4,0-0.8,0.1-1.3,0.3
		c-3.9,1.3-7.8,2.7-11.7,4.1c-0.2,0-0.3,0-0.5,0c-1.2,0.1-2.4,0.4-3.3,1.2c-0.7,0.1-1.4,0.3-2,0.6c-0.2,0-0.3,0.1-0.5,0.1
		c-3.3,1-6.5,2.2-9.7,3.5c-0.7-0.1-1.5-0.1-2.2,0.2c-2.1,0.9-4.2,1.7-6.4,2.4c-0.5,0.2-1,0.4-1.5,0.8c-0.2,0-0.4,0.1-0.6,0.2
		c-0.5,0-1,0.1-1.5,0.3c-0.4,0.2-0.7,0.3-1.1,0.5c0,0,0,0,0,0c-0.5,0-1,0.2-1.4,0.5c-0.2,0-0.3,0-0.5,0.1
		c-5.8,1.3-11.5,3.7-17.1,5.8c-0.1,0-0.1,0-0.2,0.1c-1-0.1-2,0.1-2.8,0.7c-0.2,0.1-1.7,0.9-1.1,0.7c-0.6,0.2-1.3,0.3-1.9,0.4
		c-0.9,0.2-1.7,0.6-2.5,1c-0.1,0.1-0.2,0.1-0.4,0.2c-0.3,0-0.5,0-0.8,0.1c-2,0.2-3.5,1.3-5.4,1.8c-2.4,0.6-4.7,1.7-7,2.5
		c0,0,0,0,0,0c-0.2,0-0.5,0.1-0.7,0.2c-2.3,0.8-4.6,1.5-6.9,2.3c-0.7,0-1.4,0.3-2.1,0.7c0,0-0.1,0.1-0.1,0.1
		c-6.9,2.3-13.9,4.6-20.8,6.9c-0.4,0.1-0.8,0.3-1.1,0.5c-0.4,0.1-0.8,0.3-1.2,0.6c-1.9,0.6-3.7,1.1-5.6,1.7
		c-0.3,0.1-0.4,0.4-0.3,0.6c-0.1,0.2,0,0.5,0.3,0.6c1,0.3,1.8,1.6,2.4,2.3c0.6,0.6,1.1,1.2,1.8,1.6c0.4,0.7,1,1.3,1.7,1.7
		c0.1,0.2,0.3,0.4,0.4,0.5c0.5,0.6,1.2,1.2,1.9,1.6c0.4,0.4,0.8,0.7,1.2,1c1.1,0.7,2.8,1.3,4.2,1.1c0.3,0,0.6,0,0.9-0.1
		c0,0,0.1,0,0.1,0c0.2,0,0.4,0,0.5,0c1,0.2,1.9,0.2,3,0.2c1,0,1.8-0.3,2.5-0.7c8.8-1.5,17-5.2,25.6-7.7c0.8-0.2,1.5-0.6,2-1.1
		c0.2-0.1,0.4-0.1,0.6-0.2c-0.8,0.4,0.9-0.2,1.1-0.2c0.9-0.3,1.9-0.7,2.8-1.1c0.1,0,0.1,0,0.2-0.1c0.1,0,0.2,0,0.3-0.1
		c5.4-1.6,11.7-2.6,16.5-5.6c0,0,0,0,0,0c1.4-0.3,2.8-0.7,4.2-1c0.8-0.2,1.4-0.5,1.9-0.9c6.6-2.1,13.2-4.2,19.8-6.5
		c0.5-0.2,1-0.4,1.4-0.7c0.1,0,0.2-0.1,0.2-0.1c0.2-0.1,0.3-0.2,0.4-0.2c0.3-0.1,0.6-0.2,0.9-0.3c0.7-0.2,1.4-0.3,2.1-0.5
		c1.7-0.4,3.3-1.1,4.9-1.7c0.1,0,0.1-0.1,0.2-0.1c0.7,0,1.5-0.2,2.2-0.6c4.5-2.2,9.7-3.3,14.5-4.8c4.7-1.6,9.3-3.4,14-5
		c0.8-0.1,1.7-0.3,2.4-0.7c0.1,0,0.2-0.1,0.3-0.1c0.5,0,1,0,1.5-0.2c0.9-0.3,1.5-0.6,2.2-1.1c0.3-0.1,0.5-0.1,0.8-0.2
		c12.9-4.8,26.3-8.5,39.3-12.9c0.3-0.1,0.5-0.2,0.7-0.3c1.2-0.1,2.1-0.6,2.8-1.2c3.5-1.5,7-4,8.8-7.3c0.9-1,1.3-2.3,1.3-3.6
		C219.5,207.9,219.5,207.1,219.3,206.3z"/>
</g>
<g id="Layer_10">
	<path class="st6" d="M225.5,7.2c26.4,101.3-61.8,59.4-76.3,168.3"/>
	<path class="st6" d="M225.5,7.2c23,30,25.7,66.6,5.9,81.7"/>
	<path class="st6" d="M242,39.9c38.4,33,14.2,65.3-13,79.6"/>
	<path class="st6" d="M257.8,92.3c22.7,23.6-17.8,48.3-41,51.6"/>
	<path class="st6" d="M249.3,130c15.4,31.3-52.8,60-83.4,36"/>
	<path class="st6" d="M166.5,141.2"/>
	<path class="st6" d="M165.4,157.1c4.3,24.7-17.2,45.8-16.2,18.4"/>
</g>
<g id="Layer_12">
	<path class="st6" d="M47.4,274.3"/>
	<path class="st6" d="M212.5,200.8"/>
	<path class="st6" d="M218,198.9c0,0-111.7,37.5-195.7,65.7"/>
	<path class="st6" d="M49.5,273.6"/>
	<line class="st6" x1="47.4" y1="274.3" x2="207.1" y2="220.7"/>
	<path class="st6" d="M217.2,197.2c3.5,9.1,7.4,19.7-19.7,26.7"/>
	<path class="st6" d="M152.3,151.3c-21.9,10.4-32.6,14.8-55.9,4.6"/>
	<path class="st6" d="M96.4,155.7C43.9,257.2-10.9,233.5,30.5,273.1"/>
	<path class="st6" d="M59.4,270.3c-14.9,5.3-24.9,9.1-31.8,0"/>
	<line class="st6" x1="110.8" y1="161" x2="124.3" y2="138.4"/>
	<line class="st6" x1="101.3" y1="129.7" x2="124.3" y2="138.4"/>
	<path class="st6" d="M101.3,129.7c-4.8,3-25.5,40.6-33.6,70.6"/>
	<path class="st6" d="M200.7,175.5c7.8,10.7,20.2,20,18.7,33.3"/>
	<line class="st6" x1="211" y1="187.5" x2="182" y2="197.9"/>
	<line class="st6" x1="186.9" y1="209.4" x2="182" y2="197.9"/>
	<path class="st6" d="M149.2,186c-21.8,8-21.2,34-21.6,34.3"/>
	<path class="st6" d="M87.5,174.9"/>
	<path class="st6" d="M131.3,228"/>
	<line class="st6" x1="141.2" y1="224.7" x2="80.9" y2="205.1"/>
	<line class="st6" x1="88.6" y1="169.9" x2="80.9" y2="205.1"/>
	<line class="st6" x1="48.2" y1="221.2" x2="54.3" y2="229.6"/>
	<path class="st6" d="M54.3,229.6c9.8-10.4,30.2-6.2,53.3,6.4"/>
	<path class="st1" d="M47.4,221.9"/>
</g>
</svg>
