<?xml version="1.0" encoding="utf-8"?>
<!-- Generator: Adobe Illustrator 22.0.1, SVG Export Plug-In . SVG Version: 6.00 Build 0)  -->
<svg version="1.1" xmlns="http://www.w3.org/2000/svg" xmlns:xlink="http://www.w3.org/1999/xlink" x="0px" y="0px"
	 viewBox="0 0 500 500" style="enable-background:new 0 0 500 500;" xml:space="preserve">
<style type="text/css">
	.st0{fill:none;stroke:url(#SVGID_1_);stroke-width:15;stroke-miterlimit:10;}
	.st1{fill:none;stroke:url(#SVGID_2_);stroke-width:15;stroke-miterlimit:10;}
	.st2{fill:#F7941D;}
</style>
<g id="Layer_1">
	
		<linearGradient id="SVGID_1_" gradientUnits="userSpaceOnUse" x1="79.9362" y1="289.688" x2="279.122" y2="289.688" gradientTransform="matrix(0.9019 -0.4319 0.4319 0.9019 -98.441 98.7177)">
		<stop  offset="0" style="stop-color:#FFF33B"/>
		<stop  offset="5.948725e-02" style="stop-color:#FFE029"/>
		<stop  offset="0.1303" style="stop-color:#FFD218"/>
		<stop  offset="0.2032" style="stop-color:#FEC90F"/>
		<stop  offset="0.2809" style="stop-color:#FDC70C"/>
		<stop  offset="0.6685" style="stop-color:#F3903F"/>
		<stop  offset="0.8876" style="stop-color:#ED683C"/>
		<stop  offset="1" style="stop-color:#E93E3A"/>
	</linearGradient>
	<polygon class="st0" points="157.8,218.2 144.5,390.9 300.7,316.1 	"/>
	<linearGradient id="SVGID_2_" gradientUnits="userSpaceOnUse" x1="215.6395" y1="257.8085" x2="215.6395" y2="257.8085">
		<stop  offset="0" style="stop-color:#FFF33B"/>
		<stop  offset="5.948725e-02" style="stop-color:#FFE029"/>
		<stop  offset="0.1303" style="stop-color:#FFD218"/>
		<stop  offset="0.2032" style="stop-color:#FEC90F"/>
		<stop  offset="0.2809" style="stop-color:#FDC70C"/>
		<stop  offset="0.6685" style="stop-color:#F3903F"/>
		<stop  offset="0.8876" style="stop-color:#ED683C"/>
		<stop  offset="1" style="stop-color:#E93E3A"/>
	</linearGradient>
	<path class="st1" d="M215.6,257.8"/>
</g>
<g id="Layer_2">
	<path class="st2" d="M309.1,167.7l-14.9,23.2l-6.8,10.6L245,267.6L218,285l-17,25.9c5.7-9,11.4-18.1,17.1-27.1
		c6.6-10.5,13.2-21,19.8-31.4c11-17.4,21.9-34.7,32.9-52.1c2.2-3.5,4.4-7,6.7-10.5c7.6-12,15.1-24,22.7-35.9l3.2,15.9L309.1,167.7z"
		/>
	<path class="st2" d="M218,285l27-17.4l-8.8,13.7c-6.4,5.4-12.8,10.7-19.1,16.1c-5.4,4.5-10.7,9-16.1,13.5L218,285z"/>
	<polygon class="st2" points="312.8,161.9 309.1,167.7 303.3,169.7 300.2,153.8 	"/>
	<polygon class="st2" points="476.2,109.1 309.1,167.7 303.3,169.7 300.2,153.8 	"/>
	<polygon class="st2" points="476.2,109.1 348.3,164.8 352.9,175.4 476.2,109.1 	"/>
	<polygon class="st2" points="418.5,144.1 303.3,208.1 309.9,220.2 418.5,144.1 	"/>
	<path class="st2" d="M247.5,266C247.5,266,247.5,266,247.5,266c-0.1,0.2-0.2,0.2-0.3,0.2l-2.2,1.4L218,285l-17,25.9l168.1-123.5
		L247.5,266z"/>
	<path class="st2" d="M225.4,186.3c-0.3,3.5-0.5,7-0.8,10.5c-1.5,20.3-3.1,40.7-4.6,61c-0.6,8.7-1.3,17.3-1.9,26
		c-0.4,4.5-0.7,9-1,13.6c0,0.6-0.1,1.2-0.1,1.8l-16,11.7l9.5-125.8C215.4,185.5,220.4,185.9,225.4,186.3z"/>
	<path class="st2" d="M270.8,200.3c-11,17.4-21.9,34.7-32.9,52.1c-6.6,10.5-13.2,21-19.8,31.4c0.6-8.7,1.3-17.3,1.9-26
		c1.5-20.3,3.1-40.7,4.6-61L270.8,200.3z"/>
	<polygon class="st2" points="294.2,190.9 287.4,201.5 287.4,201.5 270.8,200.3 224.6,196.8 209.8,195.7 210.4,185.2 277.5,189.7 
		294.2,190.9 	"/>
	<path class="st2" d="M305.7,267.3"/>
</g>
</svg>
