<?xml version="1.0" encoding="utf-8"?>
<!-- Generator: Adobe Illustrator 22.0.1, SVG Export Plug-In . SVG Version: 6.00 Build 0)  -->
<svg version="1.1" xmlns="http://www.w3.org/2000/svg" xmlns:xlink="http://www.w3.org/1999/xlink" x="0px" y="0px"
	 viewBox="0 0 768 768" style="enable-background:new 0 0 768 768;" xml:space="preserve">
<style type="text/css">
	.st0{fill:#020202;}
	.st1{fill:#FFFFFF;}
	.st2{display:none;}
	.st3{display:inline;}
	.st4{fill:#FFD415;}
	.st5{display:inline;fill:#FFD415;stroke:#000000;stroke-miterlimit:10;}
	.st6{display:inline;fill:#FFD415;}
	.st7{display:inline;fill:#FFBC13;}
	.st8{display:inline;fill:#FFC200;}
	.st9{display:inline;fill:#F9A435;}
</style>
<g id="Layer_2">
	<rect class="st0" width="768" height="768"/>
</g>
<g id="Layer_1">
	<g id="Layer_3">
	</g>
	<g id="Layer_2_1_">
		<g>
			
				<image style="overflow:visible;opacity:0.23;enable-background:new    ;" width="668" height="664" xlink:href="2438D5B5.png"  transform="matrix(1 0 0 1 36 53)">
			</image>
			<g>
				<polygon class="st1" points="44,668 169,591 264,529 365.6,258.9 693.6,63.3 382.5,314.6 242.4,708.8 				"/>
			</g>
		</g>
		<g>
			
				<image style="overflow:visible;opacity:0.23;enable-background:new    ;" width="316" height="259" xlink:href="2438D5B7.png"  transform="matrix(1 0 0 1 290 399)">
			</image>
			<g>
				<polygon class="st1" points="595.9,409 298.1,649.3 500.7,536.1 				"/>
			</g>
		</g>
		<g>
			
				<image style="overflow:visible;opacity:0.23;enable-background:new    ;" width="266" height="274" xlink:href="2438D5B2.png"  transform="matrix(1 0 0 1 395 213)">
			</image>
			<g>
				<polygon class="st1" points="403.7,478.7 559.5,385.6 650.7,223.5 				"/>
			</g>
		</g>
		<g>
			
				<image style="overflow:visible;opacity:0.23;enable-background:new    ;" width="273" height="314" xlink:href="2438D5B3.png"  transform="matrix(1 0 0 1 454 41)">
			</image>
			<g>
				<polygon class="st1" points="620.7,212.4 716.8,51.2 462.3,346.9 				"/>
			</g>
		</g>
	</g>
	<g id="Layer_1_1_" class="st2">
		<g class="st3">
			<circle class="st4" cx="668.5" cy="525.5" r="186"/>
			<path d="M668.5,340c25,0,49.3,4.9,72.2,14.6c22.1,9.3,41.9,22.7,59,39.8c17,17,30.4,36.9,39.8,59c9.7,22.9,14.6,47.2,14.6,72.2
				c0,25-4.9,49.3-14.6,72.2c-9.3,22.1-22.7,41.9-39.8,59c-17,17-36.9,30.4-59,39.8c-22.9,9.7-47.2,14.6-72.2,14.6
				s-49.3-4.9-72.2-14.6c-22.1-9.3-41.9-22.7-59-39.8c-17-17-30.4-36.9-39.8-59c-9.7-22.9-14.6-47.2-14.6-72.2s4.9-49.3,14.6-72.2
				c9.3-22.1,22.7-41.9,39.8-59c17-17,36.9-30.4,59-39.8C619.2,344.9,643.5,340,668.5,340 M668.5,339c-103,0-186.5,83.5-186.5,186.5
				S565.5,712,668.5,712S855,628.5,855,525.5S771.5,339,668.5,339L668.5,339z"/>
		</g>
		<g class="st3">
			<path d="M537.6,1.2l229.1,72.4l-92.7,265l-0.1,0.3l0.1,0.3l30.9,135.6l-50.5,70.3L490.7,588h-0.2l-0.1,0.1L351.5,676l-174.9,60.4
				L55.3,705.3l33.5-91.7l261.8-228.8l0.1-0.1l0.1-0.1l85-124l0.1-0.1v-0.1L537.6,1.2 M537,0L435,260l-85,124L88,613l-34,93
				l122.7,31.6L352,677l139-88l164-43l51-71l-31-136l93-266L537,0L537,0z"/>
		</g>
		<polygon class="st5" points="674.5,338.5 598.5,368.5 511.5,477.5 491.5,588.5 655.5,545.5 706.5,474.5 		"/>
		<polygon class="st6" points="674.5,338.5 604.4,365.5 598,368 706,474 		"/>
		<polygon class="st7" points="598,368 511,479 706,474 		"/>
		<polygon class="st8" points="511,479 655,546 706,474 		"/>
		<polygon class="st9" points="511,479 492,589 655,546 		"/>
		<polygon class="st9" points="555,345 499,308 453,255 442,242.1 425.2,274.3 473,334 543,377 580,391 598,368 604,365 		"/>
	</g>
</g>
</svg>
